<?xml version="1.0" encoding="UTF-8" standalone="no"?>
<svg xmlns:rdf="http://www.w3.org/1999/02/22-rdf-syntax-ns#" xmlns="http://www.w3.org/2000/svg" height="65.425mm" width="139.67mm" version="1.1" xmlns:cc="http://creativecommons.org/ns#" xmlns:dc="http://purl.org/dc/elements/1.1/" viewBox="0 0 494.90243 231.82177">
 <g transform="translate(-159.54 -418.77)">
  <g>
   <path d="m182.47 603.36q-3.3594 1.6992-8.457 1.6992-6.5625 0-10.527-4.1211-3.9453-4.1406-3.9453-10.918 0-7.0703 4.375-11.641 4.3945-4.5898 11.309-4.5898 4.3555 0 7.2461 1.2109v4.7461q-3.2031-1.7969-7.0898-1.7969-4.9414 0-7.9297 3.2617-2.9883 3.2422-2.9883 8.4961 0 5.0195 2.793 8.125 2.8125 3.1055 7.5195 3.1055 4.375 0 7.6953-2.0117v4.4336z"/>
   <path d="m205.05 604.55h-16.758v-30.254h16.074v4.0234h-11.387v8.9062h10.566v4.0039h-10.566v9.2969h12.07v4.0234z"/>
   <path d="m218.04 578.13h-2.8125v22.598h2.8125v3.8281h-10.293v-3.8281h2.793v-22.598h-2.793v-3.8281h10.293v3.8281z"/>
   <path d="m239.33 604.55h-16.504v-30.254h4.6875v26.23h11.816v4.0234z"/>
   <path d="m251.24 578.13h-2.8125v22.598h2.8125v3.8281h-10.293v-3.8281h2.793v-22.598h-2.793v-3.8281h10.293v3.8281z"/>
   <path d="m281.4 604.55h-5.2344l-14.473-22.305q-0.80078-1.2305-1.1719-2.1289h-0.11719q0.17578 1.1719 0.17578 4.4141v20.02h-4.5508v-30.254h5.5469l14.043 21.875q0.9961 1.5625 1.3281 2.168h0.0977q-0.21484-1.4062-0.21484-4.3359v-19.707h4.5703v30.254z"/>
   <path d="m312.39 602.5q-4.5312 2.5586-10.449 2.5586-6.7774 0-10.84-4.1211-4.0625-4.1211-4.0625-11.094 0-7.0508 4.4922-11.543 4.5117-4.5117 11.602-4.5117 4.8828 0 8.3594 1.5039v4.8047q-3.5742-2.207-8.6523-2.207-4.7852 0-7.832 3.2226-3.0469 3.2227-3.0469 8.457 0 5.3906 2.793 8.418 2.8125 3.0078 7.5976 3.0078 3.1641 0 5.332-1.1719v-7.5781h-6.4258v-3.9844h11.133v14.238z"/>
   <path d="m327.59 598.28q3.4766 2.832 8.1836 2.832 6.0156 0 6.0156-4.1211 0-1.1914-0.66406-2.1484-0.66407-0.95703-1.7969-1.6602-1.1133-0.72266-4.4336-2.3047-4.082-1.9531-5.7031-3.9648t-1.6211-4.7266q0-3.9062 3.0859-6.1523t7.8906-2.2461q4.5508 0 6.875 1.1133v4.8047q-2.793-1.9336-6.9727-1.9336-2.6758 0-4.3164 1.0742t-1.6406 2.9492q0 1.6992 1.1914 2.793 1.2109 1.0938 5.0781 2.9297 4.5117 2.1094 6.2305 4.2383 1.7188 2.1094 1.7188 4.8633 0 4.1016-2.9688 6.2695-2.9688 2.168-8.2226 2.168-1.9336 0-4.2969-0.46875t-3.6328-1.25v-5.0586z"/>
   <path d="m350.4 589.81q0-7.168 4.0039-11.582 4.0234-4.4336 10.84-4.4336 6.3867 0 10.254 4.2969 3.8672 4.2969 3.8672 11.016 0 7.1289-3.9453 11.543t-10.664 4.4141q-6.4062 0-10.391-4.2578-3.9648-4.2578-3.9648-10.996zm4.9219-0.33203q0 5 2.5586 8.2422 2.5586 3.2226 6.9141 3.2226 4.5703 0 7.1094-3.0664 2.5391-3.0859 2.5391-8.3203 0-5.3516-2.4609-8.4766-2.4414-3.125-6.9727-3.125-4.4141 0-7.0508 3.2422t-2.6367 8.2812z"/>
   <path d="m401.51 604.55h-16.504v-30.254h4.6875v26.23h11.816v4.0234z"/>
   <path d="m428.35 592.01q0 13.047-11.934 13.047-11.445 0-11.445-12.617v-18.145h4.6875v18.027q0 8.6133 7.1094 8.6133 6.8945 0 6.8945-8.3203v-18.32h4.6875v17.715z"/>
   <path d="m454.62 578.32h-8.6914v26.23h-4.707v-26.23h-8.6719v-4.0234h22.07v4.0234z"/>
   <path d="m466.63 578.13h-2.8125v22.598h2.8125v3.8281h-10.293v-3.8281h2.793v-22.598h-2.793v-3.8281h10.293v3.8281z"/>
   <path d="m469.46 589.81q0-7.168 4.0039-11.582 4.0234-4.4336 10.84-4.4336 6.3867 0 10.254 4.2969 3.8672 4.2969 3.8672 11.016 0 7.1289-3.9453 11.543t-10.664 4.4141q-6.4062 0-10.391-4.2578-3.9648-4.2578-3.9648-10.996zm4.9219-0.33203q0 5 2.5586 8.2422 2.5586 3.2226 6.9141 3.2226 4.5703 0 7.1094-3.0664 2.5391-3.0859 2.5391-8.3203 0-5.3516-2.4609-8.4766-2.4414-3.125-6.9727-3.125-4.4141 0-7.0508 3.2422t-2.6367 8.2812z"/>
   <path d="m529.44 604.55h-5.2344l-14.473-22.305q-0.80078-1.2305-1.1719-2.1289h-0.11719q0.17579 1.1719 0.17579 4.4141v20.02h-4.5508v-30.254h5.5469l14.043 21.875q0.99609 1.5625 1.3281 2.168h0.0977q-0.21484-1.4062-0.21484-4.3359v-19.707h4.5703v30.254z"/>
   <path d="m535.64 598.28q3.4766 2.832 8.1836 2.832 6.0156 0 6.0156-4.1211 0-1.1914-0.66406-2.1484-0.66406-0.95703-1.7969-1.6602-1.1133-0.72266-4.4336-2.3047-4.082-1.9531-5.7031-3.9648t-1.6211-4.7266q0-3.9062 3.0859-6.1523t7.8906-2.2461q4.5508 0 6.875 1.1133v4.8047q-2.793-1.9336-6.9727-1.9336-2.6758 0-4.3164 1.0742t-1.6406 2.9492q0 1.6992 1.1914 2.793 1.2109 1.0938 5.0781 2.9297 4.5117 2.1094 6.2305 4.2383 1.7188 2.1094 1.7188 4.8633 0 4.1016-2.9688 6.2695-2.9688 2.168-8.2227 2.168-1.9336 0-4.2969-0.46875t-3.6328-1.25v-5.0586z"/>
   <path d="m592.88 604.55h-6.2305l-10.664-13.594q-0.58594-0.74218-0.80078-1.2695h-0.0977v14.863h-4.6875v-30.254h4.6875v14.258h0.0977q0.27343-0.54687 0.82031-1.2695l10.254-12.988h5.7031l-12.109 14.492 13.027 15.762z"/>
   <path d="m603.98 578.13h-2.8125v22.598h2.8125v3.8281h-10.293v-3.8281h2.793v-22.598h-2.793v-3.8281h10.293v3.8281z"/>
   <path d="m625.52 604.55h-16.758v-30.254h16.074v4.0234h-11.387v8.9062h10.566v4.0039h-10.566v9.2969h12.07v4.0234z"/>
   <path d="m654.44 574.3-10.918 30.254h-5.2344l-10.742-30.254h5.1367l7.6562 22.949q0.42968 1.2695 0.60546 2.8125h0.0977q0.13672-1.2891 0.68359-2.8516l7.7539-22.91h4.9609z"/>
  </g>
  <g>
   <path d="m247.84 630.74-5.9448 15.283q-1.77 4.5654-5.127 4.5654-1.0986 0-1.7822-0.23193v-2.417q0.70801 0.31738 1.4648 0.31738 1.6113 0 2.3804-1.7944l0.93994-2.2461-5.3467-13.477h3.186l3.2471 9.6314q0.10986 0.30518 0.31738 1.2939h0.061q0.061-0.39062 0.32959-1.2695l3.3814-9.6558h2.8931z"/>
   <path d="m248.93 637.61q0-3.3325 1.8921-5.2612 1.9043-1.9287 5.1758-1.9287 3.0884 0 4.8828 1.8677t1.7944 5.1025q0 3.2593-1.8921 5.2124t-5.0537 1.9531q-3.1006 0-4.956-1.8921-1.8433-1.8921-1.8433-5.0537zm2.9175-0.061q0 2.2217 1.0742 3.4668 1.0864 1.2451 2.9419 1.2451 3.894 0 3.894-4.7974 0-2.3193-1.001-3.5278-1.001-1.2207-2.8931-1.2207t-2.9541 1.294q-1.062 1.2939-1.062 3.54z"/>
   <path d="m277.49 644.24h-2.8564v-2.1118h-0.061q-1.4038 2.4292-4.1504 2.4292-4.773 0-4.773-5.7251v-8.0933h2.8564v7.7393q0 3.7842 2.9053 3.7842 1.416 0 2.3193-1.0376 0.90332-1.0376 0.90332-2.7222v-7.7637h2.8564v13.501z"/>
   <path d="m289.23 633.48q-0.63476-0.41504-1.6846-0.41504-1.3916 0-2.2583 1.2207-0.85449 1.2207-0.85449 3.2349v6.7261h-2.8686v-13.501h2.8686v2.6856h0.061q1.001-2.9175 3.54-2.9175 0.75683 0 1.1963 0.1709v2.7954z"/>
   <path d="m309.51 644.24h-2.8686v-7.7393q0-3.7842-2.7954-3.7842-1.416 0-2.356 1.0864-0.93994 1.0864-0.93994 2.771v7.666h-2.8686v-19.983h2.8686v8.6426h0.061q1.5381-2.478 4.3335-2.478 4.5654 0 4.5654 5.5176v8.3008z"/>
   <path d="m313.63 631.65q2.063-1.2207 4.773-1.2207 5.1148 0 5.1148 5.2856v8.5327h-2.7832v-2.0508h-0.061q-1.3794 2.3682-4.1016 2.3682-1.9897 0-3.1372-1.0742-1.1353-1.0742-1.1353-2.8931 0-3.8086 4.5288-4.4434l3.9185-0.53711q0-3.0151-2.6489-3.0151-2.4292 0-4.4678 1.5747v-2.5269zm4.1382 6.3232q-1.4648 0.19532-2.0752 0.74463-0.59815 0.54932-0.59815 1.6113 0 0.89111 0.64698 1.4648 0.64697 0.56153 1.6602 0.56153 1.4404 0 2.3926-1.0132 0.95215-1.0254 0.95215-2.5757v-1.1963l-2.9785 0.40283z"/>
   <path d="m330.18 642.42v8.0322h-2.8686v-19.714h2.8686v2.2461h0.061q1.5625-2.5635 4.541-2.5635 2.5757 0 4.0527 1.8066 1.477 1.7944 1.477 4.8706 0 3.3814-1.6724 5.4199-1.6724 2.0386-4.48 2.0386-2.5635 0-3.9185-2.1362h-0.061zm-0.0244-3.8696q0 1.5747 0.97656 2.6489 0.97657 1.062 2.4658 1.062 1.7944 0 2.7832-1.3672 0.98877-1.3794 0.98877-3.8086 0-2.0874-0.91553-3.2227-0.91553-1.1475-2.5635-1.1475t-2.6978 1.1963q-1.0376 1.1963-1.0376 3.0273v1.6113z"/>
   <path d="m346.35 642.42v8.0322h-2.8686v-19.714h2.8686v2.2461h0.061q1.5625-2.5635 4.541-2.5635 2.5757 0 4.0527 1.8066 1.477 1.7944 1.477 4.8706 0 3.3814-1.6724 5.4199-1.6724 2.0386-4.48 2.0386-2.5635 0-3.9185-2.1362h-0.061zm-0.0244-3.8696q0 1.5747 0.97656 2.6489 0.97656 1.062 2.4658 1.062 1.7944 0 2.7832-1.3672 0.98877-1.3794 0.98877-3.8086 0-2.0874-0.91553-3.2227-0.91553-1.1475-2.5635-1.1475t-2.6978 1.1963q-1.0376 1.1963-1.0376 3.0273v1.6113z"/>
   <path d="m359.33 626.1q0-0.72022 0.48828-1.1841 0.50048-0.47608 1.2573-0.47608 0.74463 0 1.2573 0.47608 0.5127 0.46386 0.5127 1.1841 0 0.72021-0.5127 1.1963-0.51269 0.46387-1.2573 0.46387-0.74463 0-1.2451-0.47608-0.50048-0.47607-0.50048-1.1841zm0.28076 18.14v-13.501h2.8686v13.501h-2.8686z"/>
   <path d="m378.38 644.24h-2.8564v-7.6294q0-3.894-2.832-3.894-1.4282 0-2.3682 1.0864-0.92773 1.0742-0.92773 2.7344v7.7026h-2.8686v-13.501h2.8686v2.2095h0.061q1.5015-2.5268 4.3945-2.5268 4.5288 0 4.5288 5.5664v8.252z"/>
   <path d="m393.5 638.26h-9.2774q0.18311 4.0894 4.1626 4.0894 2.2461 0 4.0894-1.3428v2.3682q-1.8066 1.1841-4.7485 1.1841-3.0029 0-4.6997-1.831-1.6968-1.8311-1.6968-5.127 0-3.125 1.8188-5.1514 1.8311-2.0264 4.5776-2.0264 2.7344 0 4.248 1.7334 1.5259 1.7212 1.5259 4.7485v1.355zm-2.7832-2.0874q-0.0122-1.7334-0.79345-2.6611-0.78125-0.92774-2.2217-0.92774-1.3062 0-2.2705 0.98877-0.96436 0.97657-1.1963 2.6001h6.4819z"/>
   <path d="m395.87 641.11q1.8921 1.2817 3.9307 1.2817 2.6856 0 2.6856-1.6602 0-0.6958-0.56152-1.1352-0.56153-0.45166-2.5269-1.1841-2.063-0.79346-2.7832-1.6846-0.72022-0.90332-0.72022-2.2583 0-1.8677 1.5625-2.9541t3.8696-1.0864q1.77 0 3.3081 0.58594v2.5391q-1.5381-0.95215-3.4424-0.95215-1.0864 0-1.7578 0.45166-0.67138 0.45166-0.67138 1.1841 0 0.72022 0.48828 1.1353 0.50049 0.41504 2.2827 1.0986 2.1973 0.80566 2.9907 1.7212 0.80567 0.90332 0.80567 2.2583 0 1.9165-1.5625 3.0151t-4.1016 1.0986q-2.1729 0-3.7964-0.75683v-2.6978z"/>
   <path d="m407.69 641.11q1.8921 1.2817 3.9307 1.2817 2.6856 0 2.6856-1.6602 0-0.6958-0.56153-1.1352-0.56152-0.45166-2.5268-1.1841-2.063-0.79346-2.7832-1.6846-0.72021-0.90332-0.72021-2.2583 0-1.8677 1.5625-2.9541t3.8696-1.0864q1.77 0 3.3081 0.58594v2.5391q-1.5381-0.95215-3.4424-0.95215-1.0864 0-1.7578 0.45166-0.67139 0.45166-0.67139 1.1841 0 0.72022 0.48828 1.1353 0.50049 0.41504 2.2827 1.0986 2.1973 0.80566 2.9907 1.7212 0.80567 0.90332 0.80567 2.2583 0 1.9165-1.5625 3.0151t-4.1016 1.0986q-2.1728 0-3.7964-0.75683v-2.6978z"/>
   <path d="m426.08 626.1q0-0.72022 0.48828-1.1841 0.50049-0.47608 1.2573-0.47608 0.74463 0 1.2573 0.47608 0.5127 0.46386 0.5127 1.1841 0 0.72021-0.5127 1.1963-0.51269 0.46387-1.2573 0.46387-0.74463 0-1.2451-0.47608-0.50049-0.47607-0.50049-1.1841zm0.28076 18.14v-13.501h2.8687v13.501h-2.8687z"/>
   <path d="m432.64 641.11q1.8921 1.2817 3.9307 1.2817 2.6856 0 2.6856-1.6602 0-0.6958-0.56152-1.1352-0.56153-0.45166-2.5269-1.1841-2.063-0.79346-2.7832-1.6846-0.72022-0.90332-0.72022-2.2583 0-1.8677 1.5625-2.9541t3.8696-1.0864q1.77 0 3.3081 0.58594v2.5391q-1.5381-0.95215-3.4424-0.95215-1.0864 0-1.7578 0.45166-0.67139 0.45166-0.67139 1.1841 0 0.72022 0.48829 1.1353 0.50048 0.41504 2.2827 1.0986 2.1973 0.80566 2.9907 1.7212 0.80567 0.90332 0.80567 2.2583 0 1.9165-1.5625 3.0151t-4.1016 1.0986q-2.1728 0-3.7964-0.75683v-2.6978z"/>
   <path d="m450.47 637.61q0-3.3325 1.8921-5.2612 1.9043-1.9287 5.1758-1.9287 3.0884 0 4.8828 1.8677t1.7944 5.1025q0 3.2593-1.8921 5.2124t-5.0537 1.9531q-3.1006 0-4.9561-1.8921-1.8433-1.8921-1.8433-5.0537zm2.9175-0.061q0 2.2217 1.0742 3.4668 1.0864 1.2451 2.9419 1.2451 3.894 0 3.894-4.7974 0-2.3193-1.001-3.5278-1.001-1.2207-2.8931-1.2207t-2.9541 1.294q-1.062 1.2939-1.062 3.54z"/>
   <path d="m479 644.24h-2.8564v-2.1118h-0.061q-1.4038 2.4292-4.1504 2.4292-4.773 0-4.773-5.7251v-8.0933h2.8564v7.7393q0 3.7842 2.9053 3.7842 1.416 0 2.3193-1.0376 0.90332-1.0376 0.90332-2.7222v-7.7637h2.8564v13.501z"/>
   <path d="m490.74 633.48q-0.63477-0.41504-1.6846-0.41504-1.3916 0-2.2583 1.2207-0.8545 1.2207-0.8545 3.2349v6.7261h-2.8686v-13.501h2.8686v2.6856h0.061q1.001-2.9175 3.54-2.9175 0.75683 0 1.1963 0.1709v2.7954z"/>
   <path d="m502.06 642.42v8.0322h-2.8686v-19.714h2.8686v2.2461h0.061q1.5625-2.5635 4.541-2.5635 2.5757 0 4.0527 1.8066 1.477 1.7944 1.477 4.8706 0 3.3814-1.6724 5.4199-1.6724 2.0386-4.48 2.0386-2.5635 0-3.9185-2.1362h-0.061zm-0.0244-3.8696q0 1.5747 0.97656 2.6489 0.97657 1.062 2.4658 1.062 1.7944 0 2.7832-1.3672 0.98877-1.3794 0.98877-3.8086 0-2.0874-0.91553-3.2227-0.91553-1.1475-2.5635-1.1475t-2.6978 1.1963q-1.0376 1.1963-1.0376 3.0273v1.6113z"/>
   <path d="m523.02 633.48q-0.63477-0.41504-1.6846-0.41504-1.3916 0-2.2583 1.2207-0.8545 1.2207-0.8545 3.2349v6.7261h-2.8686v-13.501h2.8686v2.6856h0.061q1.001-2.9175 3.54-2.9175 0.75683 0 1.1963 0.1709v2.7954z"/>
   <path d="m524.91 626.1q0-0.72022 0.48828-1.1841 0.50049-0.47608 1.2573-0.47608 0.74463 0 1.2573 0.47608 0.51269 0.46386 0.51269 1.1841 0 0.72021-0.51269 1.1963-0.5127 0.46387-1.2573 0.46387-0.74463 0-1.2451-0.47608-0.50049-0.47607-0.50049-1.1841zm0.28076 18.14v-13.501h2.8686v13.501h-2.8686z"/>
   <path d="m544.22 644.24h-2.8564v-2.1362h-0.061q-1.4648 2.4536-4.4678 2.4536-2.5635 0-4.0894-1.8188-1.5137-1.831-1.5137-4.9316 0-3.3569 1.709-5.3711t4.4556-2.0142 3.9062 2.0752h0.061v-8.2397h2.8564v19.983zm-2.832-7.9102q0-1.5381-1.001-2.5757-0.98877-1.0376-2.4536-1.0376-1.7334 0-2.7588 1.3306t-1.0254 3.6377q0 2.124 0.96436 3.3569 0.96435 1.2207 2.6245 1.2207 1.6113 0 2.6245-1.2085 1.0254-1.2207 1.0254-3.0762v-1.648z"/>
   <path d="m559.57 638.26h-9.2773q0.1831 4.0894 4.1626 4.0894 2.2461 0 4.0894-1.3428v2.3682q-1.8066 1.1841-4.7485 1.1841-3.0029 0-4.6997-1.831-1.6968-1.8311-1.6968-5.127 0-3.125 1.8188-5.1514 1.831-2.0264 4.5776-2.0264 2.7344 0 4.248 1.7334 1.5259 1.7212 1.5259 4.7485v1.355zm-2.7832-2.0874q-0.0122-1.7334-0.79346-2.6611-0.78125-0.92774-2.2217-0.92774-1.3062 0-2.2705 0.98877-0.96435 0.97657-1.1963 2.6001h6.4819z"/>
  </g>
  <g transform="translate(-3.7222 26.728)">
   <g stroke="#3e4341" fill="#3e4341">
    <g stroke-linejoin="round" transform="matrix(.66896 0 0 .38817 106.19 314.45)" stroke-linecap="round" stroke-width="1.0008">
     <path style="color-rendering:auto;text-decoration-color:#000000;color:#000000;isolation:auto;mix-blend-mode:normal;shape-rendering:auto;solid-color:#000000;block-progression:tb;text-decoration-line:none;text-decoration-style:solid;image-rendering:auto;white-space:normal;text-indent:0;text-transform:none" d="m447.7 357.54v33.783h15.055v-33.783h-15.055z"/>
     <path d="m455.22 288.05 60.217 104.18h-120.43l60.217-104.18z"/>
    </g>
    <path d="m410.72 453.23v63.092" stroke-width="27.729"/>
    <path d="m359.25 403.13h102.94" stroke-miterlimit="3.5" stroke-width="22.183"/>
   </g>
  </g>
 </g>
</svg>
